<svg width="22" height="26" viewBox="0 0 22 26" fill="none" xmlns="http://www.w3.org/2000/svg">
<path d="M9.4512 0.58505C9.89048 0.206376 10.4368 0 11 0C11.5632 0 12.1095 0.206376 12.5488 0.58505L21.0738 7.93427C21.3629 8.18345 21.5962 8.4992 21.7565 8.85822C21.9168 9.21723 22 9.61035 22 10.0085V23.3407C22 24.046 21.7392 24.7224 21.2751 25.2211C20.8109 25.7198 20.1814 26 19.525 26H16.225C15.5686 26 14.9391 25.7198 14.4749 25.2211C14.0108 24.7224 13.75 24.046 13.75 23.3407V16.2491C13.75 16.014 13.6631 15.7885 13.5084 15.6223C13.3536 15.4561 13.1438 15.3627 12.925 15.3627H9.075C8.8562 15.3627 8.64635 15.4561 8.49164 15.6223C8.33692 15.7885 8.25 16.014 8.25 16.2491V23.3407C8.25 24.046 7.98924 24.7224 7.52509 25.2211C7.06094 25.7198 6.43141 26 5.775 26H2.475C1.81878 26 1.18942 25.72 0.7253 25.2215C0.261179 24.7231 0.000291653 24.0469 0 23.3419V10.0097C0 9.20365 0.341 8.44013 0.9262 7.93545L9.4512 0.586232V0.58505ZM11.5159 1.9679C11.3695 1.84188 11.1876 1.7732 11 1.7732C10.8124 1.7732 10.6305 1.84188 10.4841 1.9679L1.9591 9.31712C1.86268 9.40014 1.78484 9.50537 1.73134 9.62505C1.67784 9.74472 1.65004 9.87578 1.65 10.0085V23.3407C1.65 23.8312 2.0196 24.2271 2.475 24.2271H5.775C5.9938 24.2271 6.20365 24.1337 6.35836 23.9675C6.51308 23.8012 6.6 23.5758 6.6 23.3407V16.2491C6.6 15.5438 6.86076 14.8674 7.32491 14.3687C7.78906 13.87 8.41859 13.5898 9.075 13.5898H12.925C13.5814 13.5898 14.2109 13.87 14.6751 14.3687C15.1392 14.8674 15.4 15.5438 15.4 16.2491V23.3407C15.4 23.8312 15.7696 24.2271 16.225 24.2271H19.525C19.7438 24.2271 19.9536 24.1337 20.1084 23.9675C20.2631 23.8012 20.35 23.5758 20.35 23.3407V10.0085C20.3501 9.87588 20.3225 9.74488 20.2692 9.62521C20.2158 9.50554 20.1382 9.40026 20.042 9.31712L11.517 1.9679H11.5159Z" fill="white"/>
</svg>
