<svg width="27" height="26" viewBox="0 0 27 26" fill="none" xmlns="http://www.w3.org/2000/svg">
<path d="M24.1072 6.5H2.89293C1.82781 6.5 0.964355 7.33147 0.964355 8.35714V23.2143C0.964355 24.24 1.82781 25.0714 2.89293 25.0714H24.1072C25.1723 25.0714 26.0358 24.24 26.0358 23.2143V8.35714C26.0358 7.33147 25.1723 6.5 24.1072 6.5Z" stroke="white" stroke-width="1.5" stroke-linecap="round" stroke-linejoin="round"/>
<path d="M6.75 13H20.25M6.75 18.5714H20.25M9.64286 0.928589H17.3571C17.8686 0.928589 18.3592 1.12425 18.7208 1.47253C19.0825 1.82082 19.2857 2.29319 19.2857 2.78573V6.50002H7.71429V2.78573C7.71429 2.29319 7.91747 1.82082 8.27915 1.47253C8.64083 1.12425 9.13137 0.928589 9.64286 0.928589Z" stroke="white" stroke-width="1.5" stroke-linecap="round" stroke-linejoin="round"/>
</svg>
