<svg width="20" height="20" viewBox="0 0 20 20" fill="none" xmlns="http://www.w3.org/2000/svg">
<path d="M12.1096 10.8619H18.8524C19.1686 10.8619 19.4557 10.9925 19.6632 11.2034C19.8709 11.4139 20 11.7051 20 12.026V18.836C20 19.1565 19.8709 19.448 19.6632 19.6582C19.4557 19.8691 19.1686 20 18.8524 20H12.1096C11.7936 20 11.5064 19.8691 11.2988 19.6582C11.0912 19.448 10.9622 19.1565 10.9622 18.836V12.0261C10.9622 11.7053 11.0912 11.4141 11.2988 11.2036C11.5064 10.9925 11.7936 10.8619 12.1096 10.8619ZM1.1478 0H7.89036C8.20645 0 8.49372 0.130765 8.70141 0.341608C8.90909 0.552451 9.038 0.843536 9.038 1.16434V7.97421C9.038 8.29501 8.90909 8.58626 8.70141 8.79678C8.49372 9.00745 8.20645 9.13838 7.89036 9.13838H1.1478C0.833015 9.13838 0.546879 9.00745 0.339033 8.79678L0.337893 8.79579L0.336754 8.79678C0.128907 8.5861 0 8.29485 0 7.97405V1.16434C0 0.843536 0.128907 0.552285 0.336754 0.341608C0.351891 0.326253 0.367842 0.311723 0.383955 0.29835C0.587082 0.113099 0.855313 0 1.1478 0ZM7.83389 1.2213H1.20395V7.91692H7.83372L7.83389 1.2213ZM12.1096 0H18.8524C19.1686 0 19.4557 0.130765 19.6632 0.341608C19.8709 0.552285 20 0.843536 20 1.16434V7.97421C20 8.29501 19.8709 8.58626 19.6632 8.79678C19.4557 9.00745 19.1686 9.13838 18.8524 9.13838H12.1096C11.7936 9.13838 11.5064 9.00745 11.2988 8.79678C11.0912 8.58626 10.9622 8.29485 10.9622 7.97421V1.16434C10.9622 0.843536 11.0912 0.552285 11.2988 0.341608C11.5064 0.130765 11.7936 0 12.1096 0ZM18.7961 1.2213H12.1661V7.91692H18.7961V1.2213ZM1.1478 10.8619H7.89036C8.20645 10.8619 8.49372 10.9925 8.70141 11.2034C8.90909 11.4139 9.038 11.7051 9.038 12.026V18.836C9.038 19.1565 8.90909 19.448 8.70141 19.6582C8.49372 19.8691 8.20645 20 7.89036 20H1.1478C0.833015 20 0.546879 19.8691 0.339033 19.6582L0.337893 19.6572L0.336754 19.6582C0.128907 19.4482 0 19.1566 0 18.8362V12.0261C0 11.7053 0.128907 11.4141 0.336754 11.2036C0.351891 11.188 0.367842 11.1735 0.384118 11.16C0.587082 10.9749 0.855313 10.8619 1.1478 10.8619ZM7.83389 12.0832H1.20395V18.7789H7.83372L7.83389 12.0832ZM18.7961 12.0832H12.1661V18.7789H18.7961V12.0832Z" fill="white"/>
</svg>
