<svg width="22" height="20" viewBox="0 0 22 20" fill="none" xmlns="http://www.w3.org/2000/svg">
<path d="M-4.37114e-07 10C-4.22623e-07 10.3315 0.131696 10.6495 0.366116 10.8839C0.600537 11.1183 0.918479 11.25 1.25 11.25L20 11.25C20.3315 11.25 20.6495 11.1183 20.8839 10.8839C21.1183 10.6495 21.25 10.3315 21.25 10C21.25 9.66848 21.1183 9.35054 20.8839 9.11612C20.6495 8.8817 20.3315 8.75 20 8.75L1.25 8.75C0.918479 8.75 0.600537 8.8817 0.366116 9.11612C0.131696 9.35054 -4.51605e-07 9.66848 -4.37114e-07 10ZM10 1.25C10 1.58152 10.1317 1.89947 10.3661 2.13389C10.6005 2.36831 10.9185 2.5 11.25 2.5L20 2.5C20.3315 2.5 20.6495 2.36831 20.8839 2.13389C21.1183 1.89946 21.25 1.58152 21.25 1.25C21.25 0.918481 21.1183 0.600537 20.8839 0.366117C20.6495 0.131696 20.3315 1.01863e-06 20 1.03312e-06L11.25 1.4156e-06C10.9185 1.43009e-06 10.6005 0.131696 10.3661 0.366117C10.1317 0.600538 10 0.918481 10 1.25ZM5 18.75C5 19.0815 5.1317 19.3995 5.36612 19.6339C5.60054 19.8683 5.91848 20 6.25 20L20 20C20.3315 20 20.6495 19.8683 20.8839 19.6339C21.1183 19.3995 21.25 19.0815 21.25 18.75C21.25 18.4185 21.1183 18.1005 20.8839 17.8661C20.6495 17.6317 20.3315 17.5 20 17.5L6.25 17.5C5.91848 17.5 5.60054 17.6317 5.36612 17.8661C5.1317 18.1005 5 18.4185 5 18.75Z" fill="white"/>
</svg>
