<svg width="22" height="25" viewBox="0 0 22 25" fill="none" xmlns="http://www.w3.org/2000/svg">
<path d="M1 23.6667V22.25C1 19.6199 2.04479 17.0976 3.90452 15.2379C5.76426 13.3781 8.2866 12.3333 10.9167 12.3333M10.9167 12.3333C13.5467 12.3333 16.0691 13.3781 17.9288 15.2379C19.7885 17.0976 20.8333 19.6199 20.8333 22.25V23.6667M10.9167 12.3333C12.4196 12.3333 13.8609 11.7363 14.9236 10.6736C15.9863 9.6109 16.5833 8.16956 16.5833 6.66667C16.5833 5.16377 15.9863 3.72243 14.9236 2.65973C13.8609 1.59702 12.4196 1 10.9167 1C9.41377 1 7.97243 1.59702 6.90973 2.65973C5.84702 3.72243 5.25 5.16377 5.25 6.66667C5.25 8.16956 5.84702 9.6109 6.90973 10.6736C7.97243 11.7363 9.41377 12.3333 10.9167 12.3333Z" stroke="white" stroke-width="1.7" stroke-linecap="round" stroke-linejoin="round"/>
</svg>
